<mxfile host="app.diagrams.net" modified="2024-04-25T15:04:51.234Z" agent="Mozilla/5.0 (Windows NT 10.0; Win64; x64) AppleWebKit/537.36 (KHTML, like Gecko) Chrome/106.0.0.0 Safari/537.36 Edg/106.0.1370.42" etag="I3fIA6ANx89UKdjPBan_" version="24.3.0" type="device">
  <diagram name="Page-1" id="_Ctn9HFQskhT-_mY_uaI">
    <mxGraphModel dx="1453" dy="788" grid="1" gridSize="10" guides="1" tooltips="1" connect="1" arrows="1" fold="1" page="1" pageScale="1" pageWidth="850" pageHeight="1100" math="0" shadow="0">
      <root>
        <mxCell id="0" />
        <mxCell id="1" parent="0" />
        <mxCell id="mgJaZu9lhEHCvHeHzu6F-1" value="UTXO Chain" style="swimlane;whiteSpace=wrap;html=1;" vertex="1" parent="1">
          <mxGeometry x="180" y="50" width="380" height="300" as="geometry" />
        </mxCell>
        <mxCell id="mgJaZu9lhEHCvHeHzu6F-11" style="edgeStyle=orthogonalEdgeStyle;rounded=0;orthogonalLoop=1;jettySize=auto;html=1;exitX=0.5;exitY=0.5;exitDx=0;exitDy=0;exitPerimeter=0;entryX=0.5;entryY=0;entryDx=0;entryDy=0;fillColor=#d5e8d4;strokeColor=#82b366;" edge="1" parent="mgJaZu9lhEHCvHeHzu6F-1" source="mgJaZu9lhEHCvHeHzu6F-4" target="mgJaZu9lhEHCvHeHzu6F-5">
          <mxGeometry relative="1" as="geometry" />
        </mxCell>
        <mxCell id="mgJaZu9lhEHCvHeHzu6F-4" value="User" style="shape=umlActor;verticalLabelPosition=bottom;verticalAlign=top;html=1;outlineConnect=0;" vertex="1" parent="mgJaZu9lhEHCvHeHzu6F-1">
          <mxGeometry x="175" y="50" width="30" height="60" as="geometry" />
        </mxCell>
        <mxCell id="mgJaZu9lhEHCvHeHzu6F-9" style="edgeStyle=orthogonalEdgeStyle;rounded=0;orthogonalLoop=1;jettySize=auto;html=1;exitX=0.5;exitY=1;exitDx=0;exitDy=0;entryX=1;entryY=0.5;entryDx=0;entryDy=0;fillColor=#d5e8d4;strokeColor=#82b366;" edge="1" parent="mgJaZu9lhEHCvHeHzu6F-1" source="mgJaZu9lhEHCvHeHzu6F-5" target="mgJaZu9lhEHCvHeHzu6F-7">
          <mxGeometry relative="1" as="geometry" />
        </mxCell>
        <mxCell id="mgJaZu9lhEHCvHeHzu6F-5" value="Deposit" style="shape=step;perimeter=stepPerimeter;whiteSpace=wrap;html=1;fixedSize=1;" vertex="1" parent="mgJaZu9lhEHCvHeHzu6F-1">
          <mxGeometry x="240" y="110" width="100" height="40" as="geometry" />
        </mxCell>
        <mxCell id="mgJaZu9lhEHCvHeHzu6F-6" value="Withdraw" style="shape=step;perimeter=stepPerimeter;whiteSpace=wrap;html=1;fixedSize=1;" vertex="1" parent="mgJaZu9lhEHCvHeHzu6F-1">
          <mxGeometry x="40" y="110" width="100" height="40" as="geometry" />
        </mxCell>
        <mxCell id="mgJaZu9lhEHCvHeHzu6F-8" style="edgeStyle=orthogonalEdgeStyle;rounded=0;orthogonalLoop=1;jettySize=auto;html=1;exitX=0;exitY=0.5;exitDx=0;exitDy=0;entryX=0.5;entryY=1;entryDx=0;entryDy=0;fillColor=#dae8fc;strokeColor=#6c8ebf;" edge="1" parent="mgJaZu9lhEHCvHeHzu6F-1" source="mgJaZu9lhEHCvHeHzu6F-7" target="mgJaZu9lhEHCvHeHzu6F-6">
          <mxGeometry relative="1" as="geometry" />
        </mxCell>
        <mxCell id="mgJaZu9lhEHCvHeHzu6F-7" value="Vault Wallet" style="rounded=1;whiteSpace=wrap;html=1;" vertex="1" parent="mgJaZu9lhEHCvHeHzu6F-1">
          <mxGeometry x="130" y="200" width="120" height="60" as="geometry" />
        </mxCell>
        <mxCell id="mgJaZu9lhEHCvHeHzu6F-10" style="edgeStyle=orthogonalEdgeStyle;rounded=0;orthogonalLoop=1;jettySize=auto;html=1;exitX=0.5;exitY=0;exitDx=0;exitDy=0;entryX=0.5;entryY=0.5;entryDx=0;entryDy=0;entryPerimeter=0;fillColor=#dae8fc;strokeColor=#6c8ebf;" edge="1" parent="mgJaZu9lhEHCvHeHzu6F-1" source="mgJaZu9lhEHCvHeHzu6F-6" target="mgJaZu9lhEHCvHeHzu6F-4">
          <mxGeometry relative="1" as="geometry" />
        </mxCell>
        <mxCell id="mgJaZu9lhEHCvHeHzu6F-2" value="Observer Node" style="swimlane;whiteSpace=wrap;html=1;" vertex="1" parent="1">
          <mxGeometry x="100" y="550" width="540" height="460" as="geometry" />
        </mxCell>
        <mxCell id="mgJaZu9lhEHCvHeHzu6F-23" style="edgeStyle=orthogonalEdgeStyle;rounded=0;orthogonalLoop=1;jettySize=auto;html=1;exitX=0.5;exitY=1;exitDx=0;exitDy=0;entryX=0.5;entryY=0;entryDx=0;entryDy=0;fillColor=#d5e8d4;strokeColor=#82b366;" edge="1" parent="mgJaZu9lhEHCvHeHzu6F-2" source="mgJaZu9lhEHCvHeHzu6F-12" target="mgJaZu9lhEHCvHeHzu6F-22">
          <mxGeometry relative="1" as="geometry" />
        </mxCell>
        <mxCell id="mgJaZu9lhEHCvHeHzu6F-12" value="UTXO observer" style="rounded=1;whiteSpace=wrap;html=1;" vertex="1" parent="mgJaZu9lhEHCvHeHzu6F-2">
          <mxGeometry x="45" y="60" width="120" height="60" as="geometry" />
        </mxCell>
        <mxCell id="mgJaZu9lhEHCvHeHzu6F-26" style="edgeStyle=orthogonalEdgeStyle;rounded=0;orthogonalLoop=1;jettySize=auto;html=1;exitX=0.5;exitY=0;exitDx=0;exitDy=0;entryX=0.5;entryY=1;entryDx=0;entryDy=0;fillColor=#dae8fc;strokeColor=#6c8ebf;" edge="1" parent="mgJaZu9lhEHCvHeHzu6F-2" source="mgJaZu9lhEHCvHeHzu6F-13" target="mgJaZu9lhEHCvHeHzu6F-25">
          <mxGeometry relative="1" as="geometry" />
        </mxCell>
        <mxCell id="mgJaZu9lhEHCvHeHzu6F-13" value="Int3face observer" style="rounded=1;whiteSpace=wrap;html=1;" vertex="1" parent="mgJaZu9lhEHCvHeHzu6F-2">
          <mxGeometry x="377.5" y="370" width="120" height="60" as="geometry" />
        </mxCell>
        <mxCell id="mgJaZu9lhEHCvHeHzu6F-29" style="edgeStyle=orthogonalEdgeStyle;rounded=0;orthogonalLoop=1;jettySize=auto;html=1;exitX=0;exitY=0.75;exitDx=0;exitDy=0;fillColor=#d5e8d4;strokeColor=#82b366;" edge="1" parent="mgJaZu9lhEHCvHeHzu6F-2" source="mgJaZu9lhEHCvHeHzu6F-21" target="mgJaZu9lhEHCvHeHzu6F-28">
          <mxGeometry relative="1" as="geometry" />
        </mxCell>
        <mxCell id="mgJaZu9lhEHCvHeHzu6F-35" style="edgeStyle=orthogonalEdgeStyle;rounded=0;orthogonalLoop=1;jettySize=auto;html=1;exitX=1;exitY=0.25;exitDx=0;exitDy=0;entryX=0.5;entryY=1;entryDx=0;entryDy=0;fillColor=#dae8fc;strokeColor=#6c8ebf;" edge="1" parent="mgJaZu9lhEHCvHeHzu6F-2" source="mgJaZu9lhEHCvHeHzu6F-21" target="mgJaZu9lhEHCvHeHzu6F-30">
          <mxGeometry relative="1" as="geometry" />
        </mxCell>
        <mxCell id="mgJaZu9lhEHCvHeHzu6F-21" value="Observer" style="rounded=1;whiteSpace=wrap;html=1;" vertex="1" parent="mgJaZu9lhEHCvHeHzu6F-2">
          <mxGeometry x="220" y="215" width="120" height="60" as="geometry" />
        </mxCell>
        <mxCell id="mgJaZu9lhEHCvHeHzu6F-24" style="edgeStyle=orthogonalEdgeStyle;rounded=0;orthogonalLoop=1;jettySize=auto;html=1;exitX=1;exitY=0.5;exitDx=0;exitDy=0;entryX=0;entryY=0.25;entryDx=0;entryDy=0;fillColor=#d5e8d4;strokeColor=#82b366;" edge="1" parent="mgJaZu9lhEHCvHeHzu6F-2" source="mgJaZu9lhEHCvHeHzu6F-22" target="mgJaZu9lhEHCvHeHzu6F-21">
          <mxGeometry relative="1" as="geometry" />
        </mxCell>
        <mxCell id="mgJaZu9lhEHCvHeHzu6F-22" value="Signal&lt;div&gt;Inbound Tx&lt;/div&gt;" style="shape=step;perimeter=stepPerimeter;whiteSpace=wrap;html=1;fixedSize=1;" vertex="1" parent="mgJaZu9lhEHCvHeHzu6F-2">
          <mxGeometry x="52.5" y="160" width="105" height="50" as="geometry" />
        </mxCell>
        <mxCell id="mgJaZu9lhEHCvHeHzu6F-27" style="edgeStyle=orthogonalEdgeStyle;rounded=0;orthogonalLoop=1;jettySize=auto;html=1;exitX=0.5;exitY=0;exitDx=0;exitDy=0;entryX=1;entryY=0.75;entryDx=0;entryDy=0;fillColor=#dae8fc;strokeColor=#6c8ebf;" edge="1" parent="mgJaZu9lhEHCvHeHzu6F-2" source="mgJaZu9lhEHCvHeHzu6F-25" target="mgJaZu9lhEHCvHeHzu6F-21">
          <mxGeometry relative="1" as="geometry" />
        </mxCell>
        <mxCell id="mgJaZu9lhEHCvHeHzu6F-25" value="Signal&lt;div&gt;Outbound Tx&lt;/div&gt;" style="shape=step;perimeter=stepPerimeter;whiteSpace=wrap;html=1;fixedSize=1;" vertex="1" parent="mgJaZu9lhEHCvHeHzu6F-2">
          <mxGeometry x="382.5" y="280" width="115" height="55" as="geometry" />
        </mxCell>
        <mxCell id="mgJaZu9lhEHCvHeHzu6F-33" style="edgeStyle=orthogonalEdgeStyle;rounded=0;orthogonalLoop=1;jettySize=auto;html=1;exitX=0.5;exitY=1;exitDx=0;exitDy=0;entryX=0.5;entryY=0;entryDx=0;entryDy=0;fillColor=#d5e8d4;strokeColor=#82b366;" edge="1" parent="mgJaZu9lhEHCvHeHzu6F-2" source="mgJaZu9lhEHCvHeHzu6F-28" target="mgJaZu9lhEHCvHeHzu6F-32">
          <mxGeometry relative="1" as="geometry" />
        </mxCell>
        <mxCell id="mgJaZu9lhEHCvHeHzu6F-28" value="Send confirmed&lt;div&gt;transactions&lt;/div&gt;" style="shape=step;perimeter=stepPerimeter;whiteSpace=wrap;html=1;fixedSize=1;" vertex="1" parent="mgJaZu9lhEHCvHeHzu6F-2">
          <mxGeometry x="37.5" y="280" width="135" height="50" as="geometry" />
        </mxCell>
        <mxCell id="mgJaZu9lhEHCvHeHzu6F-36" style="edgeStyle=orthogonalEdgeStyle;rounded=0;orthogonalLoop=1;jettySize=auto;html=1;exitX=0.5;exitY=0;exitDx=0;exitDy=0;entryX=0.5;entryY=1;entryDx=0;entryDy=0;fillColor=#dae8fc;strokeColor=#6c8ebf;" edge="1" parent="mgJaZu9lhEHCvHeHzu6F-2" source="mgJaZu9lhEHCvHeHzu6F-30" target="mgJaZu9lhEHCvHeHzu6F-31">
          <mxGeometry relative="1" as="geometry" />
        </mxCell>
        <mxCell id="mgJaZu9lhEHCvHeHzu6F-30" value="TSS" style="rounded=1;whiteSpace=wrap;html=1;" vertex="1" parent="mgJaZu9lhEHCvHeHzu6F-2">
          <mxGeometry x="380" y="150" width="120" height="60" as="geometry" />
        </mxCell>
        <mxCell id="mgJaZu9lhEHCvHeHzu6F-31" value="UTXO Client" style="rounded=1;whiteSpace=wrap;html=1;" vertex="1" parent="mgJaZu9lhEHCvHeHzu6F-2">
          <mxGeometry x="380" y="60" width="120" height="60" as="geometry" />
        </mxCell>
        <mxCell id="mgJaZu9lhEHCvHeHzu6F-32" value="Int3face client" style="rounded=1;whiteSpace=wrap;html=1;" vertex="1" parent="mgJaZu9lhEHCvHeHzu6F-2">
          <mxGeometry x="45" y="370" width="120" height="60" as="geometry" />
        </mxCell>
        <mxCell id="mgJaZu9lhEHCvHeHzu6F-46" style="edgeStyle=orthogonalEdgeStyle;rounded=0;orthogonalLoop=1;jettySize=auto;html=1;exitX=0.75;exitY=0;exitDx=0;exitDy=0;entryX=0.5;entryY=1;entryDx=0;entryDy=0;fillColor=#dae8fc;strokeColor=#6c8ebf;" edge="1" parent="1" source="mgJaZu9lhEHCvHeHzu6F-3" target="mgJaZu9lhEHCvHeHzu6F-45">
          <mxGeometry relative="1" as="geometry" />
        </mxCell>
        <mxCell id="mgJaZu9lhEHCvHeHzu6F-3" value="Int3face" style="swimlane;whiteSpace=wrap;html=1;" vertex="1" parent="1">
          <mxGeometry x="135" y="1220" width="470" height="520" as="geometry" />
        </mxCell>
        <mxCell id="mgJaZu9lhEHCvHeHzu6F-52" style="edgeStyle=orthogonalEdgeStyle;rounded=0;orthogonalLoop=1;jettySize=auto;html=1;exitX=0.25;exitY=1;exitDx=0;exitDy=0;entryX=0.5;entryY=0;entryDx=0;entryDy=0;fillColor=#d5e8d4;strokeColor=#82b366;" edge="1" parent="mgJaZu9lhEHCvHeHzu6F-3" source="mgJaZu9lhEHCvHeHzu6F-48" target="mgJaZu9lhEHCvHeHzu6F-51">
          <mxGeometry relative="1" as="geometry" />
        </mxCell>
        <mxCell id="mgJaZu9lhEHCvHeHzu6F-64" style="edgeStyle=orthogonalEdgeStyle;rounded=0;orthogonalLoop=1;jettySize=auto;html=1;exitX=0.75;exitY=1;exitDx=0;exitDy=0;entryX=0.5;entryY=0;entryDx=0;entryDy=0;fillColor=#dae8fc;strokeColor=#6c8ebf;" edge="1" parent="mgJaZu9lhEHCvHeHzu6F-3" source="mgJaZu9lhEHCvHeHzu6F-48" target="mgJaZu9lhEHCvHeHzu6F-63">
          <mxGeometry relative="1" as="geometry" />
        </mxCell>
        <mxCell id="mgJaZu9lhEHCvHeHzu6F-48" value="Bridge" style="rounded=1;whiteSpace=wrap;html=1;" vertex="1" parent="mgJaZu9lhEHCvHeHzu6F-3">
          <mxGeometry x="90" y="50" width="120" height="60" as="geometry" />
        </mxCell>
        <mxCell id="mgJaZu9lhEHCvHeHzu6F-58" style="edgeStyle=orthogonalEdgeStyle;rounded=0;orthogonalLoop=1;jettySize=auto;html=1;exitX=1;exitY=0.5;exitDx=0;exitDy=0;fillColor=#d5e8d4;strokeColor=#82b366;" edge="1" parent="mgJaZu9lhEHCvHeHzu6F-3" source="mgJaZu9lhEHCvHeHzu6F-49" target="mgJaZu9lhEHCvHeHzu6F-57">
          <mxGeometry relative="1" as="geometry" />
        </mxCell>
        <mxCell id="mgJaZu9lhEHCvHeHzu6F-49" value="Bank" style="rounded=1;whiteSpace=wrap;html=1;" vertex="1" parent="mgJaZu9lhEHCvHeHzu6F-3">
          <mxGeometry x="90" y="440" width="120" height="60" as="geometry" />
        </mxCell>
        <mxCell id="mgJaZu9lhEHCvHeHzu6F-55" style="edgeStyle=orthogonalEdgeStyle;rounded=0;orthogonalLoop=1;jettySize=auto;html=1;exitX=0.25;exitY=1;exitDx=0;exitDy=0;entryX=0.25;entryY=0;entryDx=0;entryDy=0;fillColor=#d5e8d4;strokeColor=#82b366;" edge="1" parent="mgJaZu9lhEHCvHeHzu6F-3" source="mgJaZu9lhEHCvHeHzu6F-50" target="mgJaZu9lhEHCvHeHzu6F-54">
          <mxGeometry relative="1" as="geometry" />
        </mxCell>
        <mxCell id="mgJaZu9lhEHCvHeHzu6F-79" style="edgeStyle=orthogonalEdgeStyle;rounded=0;orthogonalLoop=1;jettySize=auto;html=1;exitX=0.75;exitY=1;exitDx=0;exitDy=0;entryX=0.75;entryY=0;entryDx=0;entryDy=0;fillColor=#dae8fc;strokeColor=#6c8ebf;" edge="1" parent="mgJaZu9lhEHCvHeHzu6F-3" source="mgJaZu9lhEHCvHeHzu6F-50" target="mgJaZu9lhEHCvHeHzu6F-54">
          <mxGeometry relative="1" as="geometry" />
        </mxCell>
        <mxCell id="mgJaZu9lhEHCvHeHzu6F-50" value="Token Factory" style="rounded=1;whiteSpace=wrap;html=1;" vertex="1" parent="mgJaZu9lhEHCvHeHzu6F-3">
          <mxGeometry x="90" y="240" width="120" height="60" as="geometry" />
        </mxCell>
        <mxCell id="mgJaZu9lhEHCvHeHzu6F-53" style="edgeStyle=orthogonalEdgeStyle;rounded=0;orthogonalLoop=1;jettySize=auto;html=1;exitX=0.5;exitY=1;exitDx=0;exitDy=0;entryX=0.25;entryY=0;entryDx=0;entryDy=0;fillColor=#d5e8d4;strokeColor=#82b366;" edge="1" parent="mgJaZu9lhEHCvHeHzu6F-3" source="mgJaZu9lhEHCvHeHzu6F-51" target="mgJaZu9lhEHCvHeHzu6F-50">
          <mxGeometry relative="1" as="geometry" />
        </mxCell>
        <mxCell id="mgJaZu9lhEHCvHeHzu6F-51" value="Mint" style="shape=step;perimeter=stepPerimeter;whiteSpace=wrap;html=1;fixedSize=1;" vertex="1" parent="mgJaZu9lhEHCvHeHzu6F-3">
          <mxGeometry x="30" y="150" width="100" height="50" as="geometry" />
        </mxCell>
        <mxCell id="mgJaZu9lhEHCvHeHzu6F-56" style="edgeStyle=orthogonalEdgeStyle;rounded=0;orthogonalLoop=1;jettySize=auto;html=1;exitX=0.5;exitY=1;exitDx=0;exitDy=0;entryX=0.5;entryY=0;entryDx=0;entryDy=0;fillColor=#d5e8d4;strokeColor=#82b366;" edge="1" parent="mgJaZu9lhEHCvHeHzu6F-3" source="mgJaZu9lhEHCvHeHzu6F-54" target="mgJaZu9lhEHCvHeHzu6F-49">
          <mxGeometry relative="1" as="geometry" />
        </mxCell>
        <mxCell id="mgJaZu9lhEHCvHeHzu6F-54" value="Update&lt;div&gt;user&lt;br&gt;&lt;div&gt;balance&lt;/div&gt;&lt;/div&gt;" style="shape=step;perimeter=stepPerimeter;whiteSpace=wrap;html=1;fixedSize=1;" vertex="1" parent="mgJaZu9lhEHCvHeHzu6F-3">
          <mxGeometry x="100" y="340" width="100" height="50" as="geometry" />
        </mxCell>
        <mxCell id="mgJaZu9lhEHCvHeHzu6F-60" style="edgeStyle=orthogonalEdgeStyle;rounded=0;orthogonalLoop=1;jettySize=auto;html=1;exitX=0.5;exitY=0;exitDx=0;exitDy=0;exitPerimeter=0;entryX=1;entryY=0.5;entryDx=0;entryDy=0;fillColor=#dae8fc;strokeColor=#6c8ebf;" edge="1" parent="mgJaZu9lhEHCvHeHzu6F-3" source="mgJaZu9lhEHCvHeHzu6F-57" target="mgJaZu9lhEHCvHeHzu6F-59">
          <mxGeometry relative="1" as="geometry" />
        </mxCell>
        <mxCell id="mgJaZu9lhEHCvHeHzu6F-57" value="User" style="shape=umlActor;verticalLabelPosition=bottom;verticalAlign=top;html=1;outlineConnect=0;" vertex="1" parent="mgJaZu9lhEHCvHeHzu6F-3">
          <mxGeometry x="410" y="230" width="30" height="60" as="geometry" />
        </mxCell>
        <mxCell id="mgJaZu9lhEHCvHeHzu6F-61" style="edgeStyle=orthogonalEdgeStyle;rounded=0;orthogonalLoop=1;jettySize=auto;html=1;exitX=0;exitY=0.5;exitDx=0;exitDy=0;entryX=1;entryY=0.5;entryDx=0;entryDy=0;fillColor=#dae8fc;strokeColor=#6c8ebf;" edge="1" parent="mgJaZu9lhEHCvHeHzu6F-3" source="mgJaZu9lhEHCvHeHzu6F-59" target="mgJaZu9lhEHCvHeHzu6F-48">
          <mxGeometry relative="1" as="geometry" />
        </mxCell>
        <mxCell id="mgJaZu9lhEHCvHeHzu6F-59" value="Withdraw" style="shape=step;perimeter=stepPerimeter;whiteSpace=wrap;html=1;fixedSize=1;" vertex="1" parent="mgJaZu9lhEHCvHeHzu6F-3">
          <mxGeometry x="290" y="60" width="100" height="40" as="geometry" />
        </mxCell>
        <mxCell id="mgJaZu9lhEHCvHeHzu6F-65" style="edgeStyle=orthogonalEdgeStyle;rounded=0;orthogonalLoop=1;jettySize=auto;html=1;exitX=0.5;exitY=1;exitDx=0;exitDy=0;entryX=0.75;entryY=0;entryDx=0;entryDy=0;fillColor=#dae8fc;strokeColor=#6c8ebf;" edge="1" parent="mgJaZu9lhEHCvHeHzu6F-3" source="mgJaZu9lhEHCvHeHzu6F-63" target="mgJaZu9lhEHCvHeHzu6F-50">
          <mxGeometry relative="1" as="geometry" />
        </mxCell>
        <mxCell id="mgJaZu9lhEHCvHeHzu6F-63" value="Burn" style="shape=step;perimeter=stepPerimeter;whiteSpace=wrap;html=1;fixedSize=1;" vertex="1" parent="mgJaZu9lhEHCvHeHzu6F-3">
          <mxGeometry x="170" y="152.5" width="100" height="45" as="geometry" />
        </mxCell>
        <mxCell id="mgJaZu9lhEHCvHeHzu6F-19" style="edgeStyle=orthogonalEdgeStyle;rounded=0;orthogonalLoop=1;jettySize=auto;html=1;exitX=0.5;exitY=0;exitDx=0;exitDy=0;entryX=0.25;entryY=1;entryDx=0;entryDy=0;fillColor=#d5e8d4;strokeColor=#82b366;" edge="1" parent="1" source="mgJaZu9lhEHCvHeHzu6F-14" target="mgJaZu9lhEHCvHeHzu6F-1">
          <mxGeometry relative="1" as="geometry" />
        </mxCell>
        <mxCell id="mgJaZu9lhEHCvHeHzu6F-14" value="Observe&lt;div&gt;deposits&lt;/div&gt;" style="shape=step;perimeter=stepPerimeter;whiteSpace=wrap;html=1;fixedSize=1;" vertex="1" parent="1">
          <mxGeometry x="170" y="430" width="100" height="50" as="geometry" />
        </mxCell>
        <mxCell id="mgJaZu9lhEHCvHeHzu6F-41" style="edgeStyle=orthogonalEdgeStyle;rounded=0;orthogonalLoop=1;jettySize=auto;html=1;exitX=0.5;exitY=0;exitDx=0;exitDy=0;entryX=0.75;entryY=1;entryDx=0;entryDy=0;fillColor=#dae8fc;strokeColor=#6c8ebf;" edge="1" parent="1" source="mgJaZu9lhEHCvHeHzu6F-15" target="mgJaZu9lhEHCvHeHzu6F-1">
          <mxGeometry relative="1" as="geometry" />
        </mxCell>
        <mxCell id="mgJaZu9lhEHCvHeHzu6F-15" value="Withdraw" style="shape=step;perimeter=stepPerimeter;whiteSpace=wrap;html=1;fixedSize=1;" vertex="1" parent="1">
          <mxGeometry x="470" y="427.5" width="100" height="55" as="geometry" />
        </mxCell>
        <mxCell id="mgJaZu9lhEHCvHeHzu6F-18" style="edgeStyle=orthogonalEdgeStyle;rounded=0;orthogonalLoop=1;jettySize=auto;html=1;exitX=0.5;exitY=0;exitDx=0;exitDy=0;entryX=0.5;entryY=1;entryDx=0;entryDy=0;fillColor=#d5e8d4;strokeColor=#82b366;" edge="1" parent="1" source="mgJaZu9lhEHCvHeHzu6F-12" target="mgJaZu9lhEHCvHeHzu6F-14">
          <mxGeometry relative="1" as="geometry" />
        </mxCell>
        <mxCell id="mgJaZu9lhEHCvHeHzu6F-40" style="edgeStyle=orthogonalEdgeStyle;rounded=0;orthogonalLoop=1;jettySize=auto;html=1;exitX=0.5;exitY=0;exitDx=0;exitDy=0;entryX=0.5;entryY=1;entryDx=0;entryDy=0;fillColor=#dae8fc;strokeColor=#6c8ebf;" edge="1" parent="1" source="mgJaZu9lhEHCvHeHzu6F-31" target="mgJaZu9lhEHCvHeHzu6F-15">
          <mxGeometry relative="1" as="geometry" />
        </mxCell>
        <mxCell id="mgJaZu9lhEHCvHeHzu6F-78" style="edgeStyle=orthogonalEdgeStyle;rounded=0;orthogonalLoop=1;jettySize=auto;html=1;exitX=0.5;exitY=1;exitDx=0;exitDy=0;entryX=0.5;entryY=0;entryDx=0;entryDy=0;fillColor=#d5e8d4;strokeColor=#82b366;" edge="1" parent="1" source="mgJaZu9lhEHCvHeHzu6F-42" target="mgJaZu9lhEHCvHeHzu6F-48">
          <mxGeometry relative="1" as="geometry" />
        </mxCell>
        <mxCell id="mgJaZu9lhEHCvHeHzu6F-42" value="Broadcast Tx" style="shape=step;perimeter=stepPerimeter;whiteSpace=wrap;html=1;fixedSize=1;" vertex="1" parent="1">
          <mxGeometry x="210" y="1070" width="120" height="80" as="geometry" />
        </mxCell>
        <mxCell id="mgJaZu9lhEHCvHeHzu6F-43" style="edgeStyle=orthogonalEdgeStyle;rounded=0;orthogonalLoop=1;jettySize=auto;html=1;exitX=0.5;exitY=1;exitDx=0;exitDy=0;fillColor=#d5e8d4;strokeColor=#82b366;" edge="1" parent="1" source="mgJaZu9lhEHCvHeHzu6F-32" target="mgJaZu9lhEHCvHeHzu6F-42">
          <mxGeometry relative="1" as="geometry" />
        </mxCell>
        <mxCell id="mgJaZu9lhEHCvHeHzu6F-47" style="edgeStyle=orthogonalEdgeStyle;rounded=0;orthogonalLoop=1;jettySize=auto;html=1;exitX=0.5;exitY=0;exitDx=0;exitDy=0;entryX=0.5;entryY=1;entryDx=0;entryDy=0;fillColor=#dae8fc;strokeColor=#6c8ebf;" edge="1" parent="1" source="mgJaZu9lhEHCvHeHzu6F-45" target="mgJaZu9lhEHCvHeHzu6F-13">
          <mxGeometry relative="1" as="geometry" />
        </mxCell>
        <mxCell id="mgJaZu9lhEHCvHeHzu6F-45" value="Observe&lt;div&gt;withdrawals&lt;/div&gt;" style="shape=step;perimeter=stepPerimeter;whiteSpace=wrap;html=1;fixedSize=1;" vertex="1" parent="1">
          <mxGeometry x="410" y="1070" width="120" height="80" as="geometry" />
        </mxCell>
        <mxCell id="mgJaZu9lhEHCvHeHzu6F-66" value="Offchain" style="swimlane;whiteSpace=wrap;html=1;" vertex="1" parent="1">
          <mxGeometry x="710" y="635" width="280" height="290" as="geometry" />
        </mxCell>
        <mxCell id="mgJaZu9lhEHCvHeHzu6F-67" value="Node 1" style="rhombus;whiteSpace=wrap;html=1;" vertex="1" parent="mgJaZu9lhEHCvHeHzu6F-66">
          <mxGeometry x="100" y="35" width="80" height="80" as="geometry" />
        </mxCell>
        <mxCell id="mgJaZu9lhEHCvHeHzu6F-68" value="Node 2" style="rhombus;whiteSpace=wrap;html=1;" vertex="1" parent="mgJaZu9lhEHCvHeHzu6F-66">
          <mxGeometry x="20" y="115" width="80" height="80" as="geometry" />
        </mxCell>
        <mxCell id="mgJaZu9lhEHCvHeHzu6F-69" value="Node N" style="rhombus;whiteSpace=wrap;html=1;" vertex="1" parent="mgJaZu9lhEHCvHeHzu6F-66">
          <mxGeometry x="180" y="115" width="80" height="80" as="geometry" />
        </mxCell>
        <mxCell id="mgJaZu9lhEHCvHeHzu6F-70" value="Nodes" style="rhombus;whiteSpace=wrap;html=1;dashed=1;" vertex="1" parent="mgJaZu9lhEHCvHeHzu6F-66">
          <mxGeometry x="100" y="195" width="80" height="80" as="geometry" />
        </mxCell>
        <mxCell id="mgJaZu9lhEHCvHeHzu6F-71" value="" style="endArrow=none;html=1;rounded=0;exitX=1;exitY=0;exitDx=0;exitDy=0;entryX=0;entryY=1;entryDx=0;entryDy=0;" edge="1" parent="mgJaZu9lhEHCvHeHzu6F-66" source="mgJaZu9lhEHCvHeHzu6F-68" target="mgJaZu9lhEHCvHeHzu6F-67">
          <mxGeometry width="50" height="50" relative="1" as="geometry">
            <mxPoint x="15" y="175" as="sourcePoint" />
            <mxPoint x="65" y="125" as="targetPoint" />
          </mxGeometry>
        </mxCell>
        <mxCell id="mgJaZu9lhEHCvHeHzu6F-72" value="" style="endArrow=none;html=1;rounded=0;exitX=1;exitY=1;exitDx=0;exitDy=0;entryX=0;entryY=0;entryDx=0;entryDy=0;" edge="1" parent="mgJaZu9lhEHCvHeHzu6F-66" source="mgJaZu9lhEHCvHeHzu6F-67" target="mgJaZu9lhEHCvHeHzu6F-69">
          <mxGeometry width="50" height="50" relative="1" as="geometry">
            <mxPoint x="195" y="185" as="sourcePoint" />
            <mxPoint x="245" y="135" as="targetPoint" />
          </mxGeometry>
        </mxCell>
        <mxCell id="mgJaZu9lhEHCvHeHzu6F-73" value="" style="endArrow=none;html=1;rounded=0;entryX=0.5;entryY=1;entryDx=0;entryDy=0;exitX=0.5;exitY=0;exitDx=0;exitDy=0;" edge="1" parent="mgJaZu9lhEHCvHeHzu6F-66" target="mgJaZu9lhEHCvHeHzu6F-67">
          <mxGeometry width="50" height="50" relative="1" as="geometry">
            <mxPoint x="140" y="195" as="sourcePoint" />
            <mxPoint x="125" y="155" as="targetPoint" />
          </mxGeometry>
        </mxCell>
        <mxCell id="mgJaZu9lhEHCvHeHzu6F-74" value="" style="endArrow=none;html=1;rounded=0;exitX=1;exitY=1;exitDx=0;exitDy=0;entryX=0;entryY=0;entryDx=0;entryDy=0;" edge="1" parent="mgJaZu9lhEHCvHeHzu6F-66" source="mgJaZu9lhEHCvHeHzu6F-68">
          <mxGeometry width="50" height="50" relative="1" as="geometry">
            <mxPoint x="35" y="265" as="sourcePoint" />
            <mxPoint x="120" y="215" as="targetPoint" />
          </mxGeometry>
        </mxCell>
        <mxCell id="mgJaZu9lhEHCvHeHzu6F-75" value="" style="endArrow=none;html=1;rounded=0;exitX=1;exitY=0;exitDx=0;exitDy=0;entryX=0;entryY=1;entryDx=0;entryDy=0;" edge="1" parent="mgJaZu9lhEHCvHeHzu6F-66" target="mgJaZu9lhEHCvHeHzu6F-69">
          <mxGeometry width="50" height="50" relative="1" as="geometry">
            <mxPoint x="160" y="215" as="sourcePoint" />
            <mxPoint x="245" y="215" as="targetPoint" />
          </mxGeometry>
        </mxCell>
        <mxCell id="mgJaZu9lhEHCvHeHzu6F-76" value="" style="endArrow=none;html=1;rounded=0;exitX=1;exitY=0.5;exitDx=0;exitDy=0;entryX=0;entryY=0.5;entryDx=0;entryDy=0;" edge="1" parent="mgJaZu9lhEHCvHeHzu6F-66" source="mgJaZu9lhEHCvHeHzu6F-68" target="mgJaZu9lhEHCvHeHzu6F-69">
          <mxGeometry width="50" height="50" relative="1" as="geometry">
            <mxPoint x="120" y="185" as="sourcePoint" />
            <mxPoint x="170" y="135" as="targetPoint" />
          </mxGeometry>
        </mxCell>
        <mxCell id="mgJaZu9lhEHCvHeHzu6F-77" value="" style="shape=flexArrow;endArrow=classic;html=1;rounded=0;exitX=0;exitY=0.5;exitDx=0;exitDy=0;entryX=1;entryY=0.5;entryDx=0;entryDy=0;" edge="1" parent="1" source="mgJaZu9lhEHCvHeHzu6F-66" target="mgJaZu9lhEHCvHeHzu6F-2">
          <mxGeometry width="50" height="50" relative="1" as="geometry">
            <mxPoint x="590" y="1010" as="sourcePoint" />
            <mxPoint x="640" y="960" as="targetPoint" />
          </mxGeometry>
        </mxCell>
      </root>
    </mxGraphModel>
  </diagram>
</mxfile>
